<svg width="1024" height="1024" viewBox="0 0 1024 1024" fill="none" xmlns="http://www.w3.org/2000/svg">
<path d="M498.31 412.7C497.324 414.813 495.204 416.164 492.872 416.164H317.164C313.85 416.164 311.164 418.85 311.164 422.164V506C311.164 509.314 313.85 512 317.164 512H442.588C446.977 512 449.88 516.558 448.026 520.536L399.453 624.7C398.468 626.813 396.347 628.164 394.015 628.164H317.164C313.85 628.164 311.164 630.85 311.164 634.164V718C311.164 721.314 308.478 724 305.164 724H201C197.686 724 195 721.314 195 718V306C195 302.686 197.686 300 201 300H541.444C545.833 300 548.737 304.558 546.882 308.536L498.31 412.7Z" fill="white"/>
<path d="M687.424 557.147C685.461 552.938 688.821 548.215 693.422 548.85C755.112 557.371 809.901 587.501 849.903 631.353C850.308 631.797 850.642 632.3 850.895 632.845L889.422 715.464C891.277 719.442 888.373 724 883.984 724H769.052C766.72 724 764.599 722.649 763.614 720.536L687.424 557.147ZM518.201 720.536C517.216 722.649 515.095 724 512.763 724H418.83C414.73 724 411.841 719.98 413.268 716.137C441.688 639.617 505.045 580.079 583.959 556.905C588.783 555.488 592.862 560.423 590.737 564.98L518.201 720.536ZM704.821 319.586C704.84 319.626 704.873 319.659 704.913 319.678L704.952 319.696C705.026 319.731 705.058 319.819 705.023 319.893C705.005 319.933 705.005 319.979 705.023 320.019L810.522 546.262C813.093 551.776 806.577 557.468 801.295 554.45C762.89 532.513 718.994 519.09 672.179 516.754C669.931 516.642 667.915 515.311 666.964 513.271L646.345 469.052C644.191 464.433 637.623 464.433 635.469 469.052L613.075 517.076C612.232 518.884 610.541 520.151 608.574 520.484C555.83 529.425 507.924 552.587 468.939 585.888C463.663 590.394 453.887 583.588 456.82 577.299L576.792 320.02C576.81 319.98 576.81 319.934 576.792 319.894C576.757 319.819 576.789 319.73 576.863 319.695L576.902 319.677C576.943 319.658 576.976 319.625 576.995 319.584L584.512 303.464C585.498 301.351 587.618 300 589.95 300H691.866C694.198 300 696.318 301.351 697.304 303.464L704.821 319.586Z" fill="white"/>
<path d="M656.299 547C697.054 547 735.685 556.094 770.275 572.362C775.254 574.704 773.171 582.062 767.669 582.062C665.568 582.062 576.797 639.132 531.515 723.113C530.454 725.081 528.408 726.328 526.172 726.328H411.698C407.563 726.328 404.671 722.241 406.164 718.385C444.968 618.111 542.328 547 656.299 547Z" fill="white"/>
</svg>
