<svg width="1024" height="1024" viewBox="0 0 1024 1024" fill="none" xmlns="http://www.w3.org/2000/svg">
<path d="M498.31 412.7C497.324 414.813 495.204 416.164 492.872 416.164H317.164C313.85 416.164 311.164 418.85 311.164 422.164V506C311.164 509.314 313.85 512 317.164 512H442.588C446.977 512 449.88 516.558 448.026 520.536L399.453 624.7C398.468 626.813 396.347 628.164 394.015 628.164H317.164C313.85 628.164 311.164 630.85 311.164 634.164V718C311.164 721.314 308.478 724 305.164 724H201C197.686 724 195 721.314 195 718V306C195 302.686 197.686 300 201 300H541.444C545.833 300 548.737 304.558 546.882 308.536L498.31 412.7Z" fill="url(#paint0_linear_397_4107)"/>
<path d="M687.427 557.147C685.464 552.938 688.824 548.215 693.425 548.85C755.115 557.371 809.904 587.5 849.906 631.352C850.311 631.796 850.645 632.299 850.898 632.844L889.425 715.464C891.28 719.442 888.376 724 883.987 724H769.055C766.723 724 764.602 722.649 763.617 720.536L687.427 557.147ZM518.204 720.536C517.219 722.649 515.098 724 512.766 724H418.834C414.734 724 411.844 719.98 413.272 716.137C441.692 639.618 505.049 580.079 583.962 556.905C588.786 555.488 592.865 560.423 590.74 564.98L518.204 720.536ZM704.824 319.586C704.843 319.626 704.876 319.659 704.916 319.678L704.955 319.696C705.029 319.731 705.061 319.819 705.026 319.893C705.008 319.933 705.008 319.979 705.026 320.019L810.525 546.262C813.096 551.776 806.58 557.468 801.298 554.451C762.893 532.513 718.997 519.09 672.182 516.754C669.934 516.642 667.918 515.311 666.967 513.271L646.348 469.052C644.194 464.433 637.626 464.433 635.472 469.052L613.078 517.076C612.235 518.884 610.544 520.151 608.577 520.484C555.833 529.426 507.926 552.588 468.942 585.889C463.666 590.396 453.89 583.589 456.822 577.301L576.795 320.02C576.813 319.98 576.813 319.934 576.794 319.894C576.76 319.819 576.792 319.73 576.866 319.695L576.905 319.677C576.946 319.658 576.979 319.625 576.998 319.584L584.515 303.464C585.501 301.351 587.621 300 589.953 300H691.869C694.201 300 696.321 301.351 697.307 303.464L704.824 319.586Z" fill="url(#paint1_linear_397_4107)"/>
<path d="M656.302 547C697.058 547 735.689 556.094 770.279 572.362C775.258 574.704 773.175 582.062 767.673 582.062C665.572 582.062 576.801 639.132 531.519 723.113C530.458 725.081 528.412 726.328 526.176 726.328H411.702C407.567 726.328 404.675 722.241 406.168 718.385C444.972 618.111 542.332 547 656.302 547Z" fill="#2ED6FF"/>
<defs>
<linearGradient id="paint0_linear_397_4107" x1="371.226" y1="300" x2="371.226" y2="724" gradientUnits="userSpaceOnUse">
<stop stop-color="#39B3FF"/>
<stop offset="1" stop-color="#3198F6"/>
</linearGradient>
<linearGradient id="paint1_linear_397_4107" x1="651.403" y1="300" x2="651.403" y2="724" gradientUnits="userSpaceOnUse">
<stop stop-color="#39B3FF"/>
<stop offset="1" stop-color="#3198F6"/>
</linearGradient>
</defs>
</svg>
